<svg xmlns="http://www.w3.org/2000/svg" version="1.1" xmlns:xlink="http://www.w3.org/1999/xlink" width="1000" height="1000"><style>
    #light-icon {
      display: inline;
    }
    #dark-icon {
      display: none;
    }

    @media (prefers-color-scheme: dark) {
      #light-icon {
        display: none;
      }
      #dark-icon {
        display: inline;
      }
    }
  </style><g id="light-icon"><svg xmlns="http://www.w3.org/2000/svg" version="1.1" xmlns:xlink="http://www.w3.org/1999/xlink" width="1000" height="1000"><g><g transform="matrix(41.666666666666664,0,0,41.666666666666664,0,0)"><svg xmlns="http://www.w3.org/2000/svg" version="1.1" xmlns:xlink="http://www.w3.org/1999/xlink" width="24" height="24"><svg width="24" height="24" viewBox="0 0 24 24" fill="none" xmlns="http://www.w3.org/2000/svg"><path d="M7.5 18.75 3.75 21 21 3.75 18.75 7.5zm9-13.5L20.25 3 3 20.25l2.25-3.75z" fill="#000"></path><path d="M16.383 6.867a6.75 6.75 0 0 0-9.517 9.517zM12 18.75A6.75 6.75 0 0 0 18.75 12zm6.613-8.112a6.7 6.7 0 0 0-.347-1.154l-8.782 8.782q.555.223 1.154.347z" fill="#000"></path></svg></svg></g></g></svg></g><g id="dark-icon"><svg xmlns="http://www.w3.org/2000/svg" version="1.1" xmlns:xlink="http://www.w3.org/1999/xlink" width="1000" height="1000"><g clip-path="url(#SvgjsClipPath1027)"><rect width="1000" height="1000" fill="#ffffff"></rect><g transform="matrix(29.166666666666668,0,0,29.166666666666668,150,150)"><svg xmlns="http://www.w3.org/2000/svg" version="1.1" xmlns:xlink="http://www.w3.org/1999/xlink" width="24" height="24"><svg width="24" height="24" viewBox="0 0 24 24" fill="none" xmlns="http://www.w3.org/2000/svg"><path d="M7.5 18.75 3.75 21 21 3.75 18.75 7.5zm9-13.5L20.25 3 3 20.25l2.25-3.75z" fill="#000"></path><path d="M16.383 6.867a6.75 6.75 0 0 0-9.517 9.517zM12 18.75A6.75 6.75 0 0 0 18.75 12zm6.613-8.112a6.7 6.7 0 0 0-.347-1.154l-8.782 8.782q.555.223 1.154.347z" fill="#000"></path></svg></svg></g></g><defs><clipPath id="SvgjsClipPath1027"><rect width="1000" height="1000" x="0" y="0" rx="350" ry="350"></rect></clipPath></defs></svg></g></svg>